<?xml version="1.0" encoding="iso-8859-1"?>
<!-- Generator: Adobe Illustrator 15.0.0, SVG Export Plug-In . SVG Version: 6.00 Build 0)  -->
<!DOCTYPE svg PUBLIC "-//W3C//DTD SVG 1.1//EN" "http://www.w3.org/Graphics/SVG/1.1/DTD/svg11.dtd">
<svg version="1.1" xmlns="http://www.w3.org/2000/svg" xmlns:xlink="http://www.w3.org/1999/xlink" x="0px" y="0px" width="48px"
	 height="48px" viewBox="0 0 48 48" style="enable-background:new 0 0 48 48;" xml:space="preserve">
<g id="blog">
	<path style="fill:#616262;" d="M28.6,26.3h-9.316c-1.271,0-2.3,1.024-2.3,2.3c0,1.268,1.028,2.301,2.3,2.301H28.6
		c1.271,0,2.301-1.033,2.301-2.301C30.9,27.324,29.871,26.3,28.6,26.3z M19.283,19.4h5.979c1.271,0,2.301-1.031,2.301-2.301
		c0-1.275-1.029-2.3-2.301-2.3h-5.979c-1.271,0-2.3,1.024-2.3,2.3C16.983,18.369,18.012,19.4,19.283,19.4z M33.2,17.1V19.4
		c0,1.269,1.026,2.3,2.3,2.3c1.271,0,2.3,1.024,2.3,2.3v6.9c0,3.805-3.091,6.899-6.899,6.899H17.1c-3.813,0-6.899-3.095-6.899-6.899
		V14.8c0-3.812,3.086-6.899,6.899-6.899h9.2c3.81,0,6.9,3.088,6.9,6.899 M42.4,1H5.6C3.058,1,1,3.056,1,5.6V42.4
		C1,44.934,3.058,47,5.6,47H42.4c2.537,0,4.6-2.066,4.6-4.6V5.6C47,3.056,44.938,1,42.4,1z"/>
</g>
<g id="Layer_1">
</g>
</svg>
