<?xml version="1.0" encoding="iso-8859-1"?>
<!-- Generator: Adobe Illustrator 15.0.0, SVG Export Plug-In . SVG Version: 6.00 Build 0)  -->
<!DOCTYPE svg PUBLIC "-//W3C//DTD SVG 1.1//EN" "http://www.w3.org/Graphics/SVG/1.1/DTD/svg11.dtd">
<svg version="1.1" xmlns="http://www.w3.org/2000/svg" xmlns:xlink="http://www.w3.org/1999/xlink" x="0px" y="0px" width="48px"
	 height="48px" viewBox="0 0 48 48" style="enable-background:new 0 0 48 48;" xml:space="preserve">
<g id="cow">
	<path style="fill:#903F98;" d="M28.925,30.49c-0.984,0-1.642,0.492-1.642,1.643c0,1.146,0.657,1.642,1.642,1.642
		c0.989,0,1.647-0.495,1.647-1.642C30.572,30.982,29.914,30.49,28.925,30.49z M30.572,18.169c0.82,0,1.31,0.49,1.31,1.312
		c0,0.824-0.489,1.316-1.31,1.316c-0.658,0-1.157-0.492-1.157-1.316C29.415,18.66,29.914,18.169,30.572,18.169z M19.069,30.49
		c-0.984,0-1.642,0.492-1.642,1.643c0,1.146,0.657,1.642,1.642,1.642c0.982,0,1.64-0.495,1.64-1.642
		C20.709,30.982,20.052,30.49,19.069,30.49z M15.13,32.133c0-2.137,1.805-3.943,3.939-3.943h9.855c2.137,0,3.946,1.807,3.946,3.943
		c0,2.136-1.81,3.777-3.946,3.777h-9.855C16.935,35.91,15.13,34.269,15.13,32.133z M17.428,18.169c0.657,0,1.15,0.49,1.15,1.312
		c0,0.824-0.493,1.316-1.15,1.316c-0.823,0-1.316-0.492-1.316-1.316C16.111,18.66,16.604,18.169,17.428,18.169z M23.998,42.483
		c7.226,0,10.682-3.29,10.682-10.351V17.511c1.477,0.659,3.118,1.149,4.758,1.149c6.082,0,7.563-2.625,7.563-3.779
		c0-1.149-1.48-3.779-7.563-3.779c-1.967,0-4.105,0.659-5.415,1.643c-0.66-1.643-1.807-2.954-3.289-3.777V7.16
		c0-0.821-0.819-1.643-1.644-1.643c-0.982,0-1.64,0.822-1.64,1.643v0.493c-0.985-0.163-2.298-0.328-3.452-0.328
		c-1.149,0-2.463,0.165-3.448,0.328V7.16c0-0.821-0.656-1.643-1.647-1.643c-0.817,0-1.643,0.822-1.643,1.643v1.808
		c-1.476,0.824-2.624,2.134-3.283,3.777c-1.314-0.984-3.447-1.643-5.42-1.643C2.477,11.102,1,13.731,1,14.881
		c0,1.153,1.477,3.779,7.557,3.779c1.641,0,3.282-0.49,4.765-1.149v14.622C13.321,39.193,16.77,42.483,23.998,42.483z"/>
</g>
<g id="Layer_1">
</g>
</svg>
