<?xml version="1.0" encoding="iso-8859-1"?>
<!-- Generator: Adobe Illustrator 15.0.0, SVG Export Plug-In . SVG Version: 6.00 Build 0)  -->
<!DOCTYPE svg PUBLIC "-//W3C//DTD SVG 1.1//EN" "http://www.w3.org/Graphics/SVG/1.1/DTD/svg11.dtd">
<svg version="1.1" xmlns="http://www.w3.org/2000/svg" xmlns:xlink="http://www.w3.org/1999/xlink" x="0px" y="0px" width="48px"
	 height="48px" viewBox="0 0 48 48" style="enable-background:new 0 0 48 48;" xml:space="preserve">
<g id="csform">
	<linearGradient id="SVGID_1_" gradientUnits="userSpaceOnUse" x1="12.4404" y1="7.4961" x2="35.5554" y2="40.5078">
		<stop  offset="0" style="stop-color:#DEBDDA"/>
		<stop  offset="0.5152" style="stop-color:#9C52A0"/>
		<stop  offset="1" style="stop-color:#903F98"/>
	</linearGradient>
	<path style="fill:url(#SVGID_1_);" d="M46.756,29.295l-9.387-18.498c-0.148-0.289-0.363-0.531-0.639-0.709L23.297,1.301
		c-0.656-0.43-1.508-0.396-2.13,0.086L1.757,16.418c-0.696,0.543-0.912,1.504-0.515,2.287l9.384,18.508
		c0.151,0.279,0.364,0.527,0.634,0.702l13.436,8.782C25.008,46.896,25.357,47,25.705,47c0.398,0,0.796-0.129,1.129-0.389
		l19.408-15.025C46.94,31.045,47.154,30.084,46.756,29.295z M41.475,27.022l-9.331-6.097L24.989,6.807l9.32,6.094L41.475,27.022z
		 M5.213,18.4L22.385,5.1l0.547,0.365L30.9,21.178L13.469,34.672L5.213,18.4z M25.611,42.899l-11.255-7.36l17.349-13.434
		l10.884,7.105l0.195,0.396L25.611,42.899z"/>
</g>
<g id="Layer_1">
</g>
</svg>
