<?xml version="1.0" encoding="iso-8859-1"?>
<!-- Generator: Adobe Illustrator 15.0.0, SVG Export Plug-In . SVG Version: 6.00 Build 0)  -->
<!DOCTYPE svg PUBLIC "-//W3C//DTD SVG 1.1//EN" "http://www.w3.org/Graphics/SVG/1.1/DTD/svg11.dtd">
<svg version="1.1" xmlns="http://www.w3.org/2000/svg" xmlns:xlink="http://www.w3.org/1999/xlink" x="0px" y="0px" width="48px"
	 height="48px" viewBox="0 0 48 48" style="enable-background:new 0 0 48 48;" xml:space="preserve">
<g id="done">
	<path style="fill:#8BC249;" d="M8.294,18.757H4.895v10.487h3.399c1.33,0,2.411-0.414,3.244-1.238
		c0.833-0.826,1.25-1.895,1.25-3.206v-1.592c0-1.307-0.417-2.375-1.25-3.205S9.624,18.757,8.294,18.757z M11.038,24.795
		c0,0.896-0.248,1.629-0.745,2.195s-1.181,0.85-2.05,0.85h-1.6v-7.679h1.6c0.869,0,1.553,0.283,2.05,0.849
		c0.497,0.566,0.745,1.293,0.745,2.183V24.795z M18.716,18.605c-1.254,0-2.271,0.423-3.057,1.269
		c-0.785,0.844-1.178,1.906-1.178,3.183v1.888c0,1.282,0.393,2.345,1.178,3.187c0.785,0.844,1.805,1.264,3.064,1.264
		c1.281,0,2.325-0.42,3.129-1.264c0.805-0.842,1.207-1.904,1.207-3.187v-1.888c0-1.276-0.403-2.339-1.211-3.183
		C21.042,19.028,19.998,18.605,18.716,18.605z M21.315,24.944c0,0.888-0.23,1.612-0.693,2.175c-0.465,0.563-1.098,0.842-1.898,0.842
		c-0.773,0-1.384-0.281-1.83-0.846c-0.447-0.564-0.67-1.287-0.67-2.171v-1.901c0-0.874,0.223-1.593,0.67-2.154
		c0.446-0.562,1.055-0.843,1.822-0.843c0.797,0,1.43,0.281,1.898,0.843s0.701,1.28,0.701,2.154V24.944z M31.695,26.391l-0.043,0.016
		L27,18.757h-1.75v10.487H27v-7.643l0.043-0.014l4.652,7.656h1.744V18.757h-1.744V26.391z M37.783,27.84v-3.313h4.588v-1.405h-4.588
		v-2.96h5.271v-1.404h-7.023v10.487h7.074V27.84H37.783z"/>
</g>
<g id="Layer_1">
</g>
</svg>
