<?xml version="1.0" encoding="iso-8859-1"?>
<!-- Generator: Adobe Illustrator 15.0.0, SVG Export Plug-In . SVG Version: 6.00 Build 0)  -->
<!DOCTYPE svg PUBLIC "-//W3C//DTD SVG 1.1//EN" "http://www.w3.org/Graphics/SVG/1.1/DTD/svg11.dtd">
<svg version="1.1" xmlns="http://www.w3.org/2000/svg" xmlns:xlink="http://www.w3.org/1999/xlink" x="0px" y="0px" width="48px"
	 height="48px" viewBox="0 0 48 48" style="enable-background:new 0 0 48 48;" xml:space="preserve">
<g id="facebook">
	<path style="fill:#010101;" d="M40.1,5.6v6.9h-4.6c-1.271,0-2.3,1.024-2.3,2.3v4.6H40.1v6.9H33.2v16.1h-6.9V26.3h-4.6v-6.9h4.6
		v-5.75c0-4.452,3.604-8.05,8.05-8.05 M42.399,1H5.601C3.06,1,1,3.053,1,5.6v36.799C1,44.934,3.06,47,5.601,47h36.799
		C44.938,47,47,44.934,47,42.399V5.6C47,3.053,44.938,1,42.399,1z"/>
</g>
<g id="Layer_1">
</g>
</svg>
