<?xml version="1.0" encoding="iso-8859-1"?>
<!-- Generator: Adobe Illustrator 15.0.0, SVG Export Plug-In . SVG Version: 6.00 Build 0)  -->
<!DOCTYPE svg PUBLIC "-//W3C//DTD SVG 1.1//EN" "http://www.w3.org/Graphics/SVG/1.1/DTD/svg11.dtd">
<svg version="1.1" xmlns="http://www.w3.org/2000/svg" xmlns:xlink="http://www.w3.org/1999/xlink" x="0px" y="0px" width="48px"
	 height="48px" viewBox="0 0 48 48" style="enable-background:new 0 0 48 48;" xml:space="preserve">
<g id="github">
	<path style="fill:#616262;" d="M47,24.567c0,10.157-6.585,18.772-15.715,21.823c-1.166,0.225-1.584-0.494-1.584-1.123
		c0-0.738,0.031-3.221,0.031-6.295c0-2.146-0.736-3.549-1.563-4.258c5.125-0.57,10.502-2.516,10.502-11.352
		c0-2.511-0.871-4.563-2.363-6.172c0.234-0.58,1.025-2.92-0.23-6.087c0,0-1.928-0.618-6.318,2.358
		c-1.836-0.51-3.805-0.764-5.76-0.772c-1.953,0.009-3.922,0.263-5.756,0.772c-4.396-2.977-6.325-2.358-6.325-2.358
		c-1.251,3.167-0.463,5.507-0.228,6.087c-1.49,1.608-2.367,3.661-2.367,6.172c0,8.813,5.371,10.785,10.479,11.369
		c-0.658,0.576-1.252,1.586-1.46,3.072c-1.31,0.59-4.644,1.604-6.696-1.908c0,0-1.213-2.211-3.521-2.373
		c0,0-2.244-0.025-0.157,1.398c0,0,1.507,0.709,2.554,3.363c0,0,1.35,4.475,7.747,3.088c0.011,1.918,0.031,3.363,0.031,3.895
		c0,0.623-0.42,1.334-1.569,1.123C7.59,43.35,1,34.729,1,24.567c0-12.704,10.299-23,23-23C36.702,1.567,47,11.863,47,24.567z"/>
</g>
<g id="Layer_1">
</g>
</svg>
