<?xml version="1.0" encoding="iso-8859-1"?>
<!-- Generator: Adobe Illustrator 15.0.0, SVG Export Plug-In . SVG Version: 6.00 Build 0)  -->
<!DOCTYPE svg PUBLIC "-//W3C//DTD SVG 1.1//EN" "http://www.w3.org/Graphics/SVG/1.1/DTD/svg11.dtd">
<svg version="1.1" xmlns="http://www.w3.org/2000/svg" xmlns:xlink="http://www.w3.org/1999/xlink" x="0px" y="0px" width="48px"
	 height="48px" viewBox="0 0 48 48" style="enable-background:new 0 0 48 48;" xml:space="preserve">
<g id="google_x5F_plus">
	<path style="fill:#010101;" d="M40.102,24H35.5v4.601h-2.299V24h-4.6v-2.301h4.6v-4.6H35.5v4.6h4.602 M17.252,40.559
		c-6.431,0-9.352-3.594-9.352-6.937c0-1.037,0.323-3.651,3.401-5.484c1.771-1.083,4.252-1.838,7.226-2.084
		c-0.434-0.575-0.775-1.259-0.775-2.278c0-0.359,0.041-0.715,0.126-1.074h-0.885c-4.542,0-7.255-3.558-7.255-6.999
		c0-3.98,2.961-8.266,9.461-8.266h9.693l-0.785,0.781l-1.629,1.631l-0.178,0.135h-1.603c0.938,0.975,2.062,2.516,2.062,4.964
		c0,3.23-1.697,4.816-3.587,6.285c-0.363,0.283-0.978,0.876-0.978,1.666c0,0.679,0.562,1.102,0.907,1.42
		c0.309,0.252,0.679,0.513,1.078,0.786c1.868,1.309,4.421,3.096,4.421,6.622C28.602,35.801,25.637,40.559,17.252,40.559z
		 M42.4,0.999h-36.8C3.061,0.999,1,3.052,1,5.6V42.4c0,2.534,2.061,4.601,4.601,4.601h36.8c2.539,0,4.6-2.066,4.6-4.601V5.6
		C47,3.052,44.939,0.999,42.4,0.999z M20.702,28.155c-0.236-0.018-0.42-0.018-0.722-0.018h-0.052c-0.6,0-2.652,0.111-4.183,0.629
		c-1.479,0.539-3.245,1.657-3.245,3.908c0,2.484,2.383,5.126,6.807,5.126c3.508,0,5.604-2.301,5.604-4.601
		C24.911,31.483,23.857,30.42,20.702,28.155z M22.159,16.808c0-2.346-1.445-6.945-4.791-6.945c-1.465,0-3.03,1.011-3.03,3.836
		c0,2.723,1.438,6.748,4.528,6.748C19,20.446,22.159,20.401,22.159,16.808z"/>
</g>
<g id="Layer_1">
</g>
</svg>
