<?xml version="1.0" encoding="iso-8859-1"?>
<!-- Generator: Adobe Illustrator 15.0.0, SVG Export Plug-In . SVG Version: 6.00 Build 0)  -->
<!DOCTYPE svg PUBLIC "-//W3C//DTD SVG 1.1//EN" "http://www.w3.org/Graphics/SVG/1.1/DTD/svg11.dtd">
<svg version="1.1" xmlns="http://www.w3.org/2000/svg" xmlns:xlink="http://www.w3.org/1999/xlink" x="0px" y="0px" width="48px"
	 height="48px" viewBox="0 0 48 48" style="enable-background:new 0 0 48 48;" xml:space="preserve">
<g id="hearth_x5F_empty">
	<path style="fill:#FFFFFF;" d="M24.238,38.668L24,38.887l-0.242-0.219C12.824,28.744,5.6,22.188,5.6,15.549
		c0-4.594,3.459-8.05,8.051-8.05c3.535,0,6.99,2.3,8.203,5.427h4.289c1.217-3.127,4.668-5.427,8.207-5.427
		c4.6,0,8.051,3.456,8.051,8.05C42.4,22.188,35.172,28.744,24.238,38.668z M34.35,2.898c-4.006,0-7.844,1.851-10.35,4.793
		c-2.511-2.942-6.348-4.793-10.35-4.793C6.557,2.898,1,8.451,1,15.549c0,8.679,7.821,15.777,19.667,26.525L24,45.102l3.328-3.027
		C39.174,31.326,47,24.228,47,15.549C47,8.451,41.443,2.898,34.35,2.898z"/>
</g>
<g id="Layer_1">
</g>
</svg>
