<?xml version="1.0" encoding="iso-8859-1"?>
<!-- Generator: Adobe Illustrator 15.0.0, SVG Export Plug-In . SVG Version: 6.00 Build 0)  -->
<!DOCTYPE svg PUBLIC "-//W3C//DTD SVG 1.1//EN" "http://www.w3.org/Graphics/SVG/1.1/DTD/svg11.dtd">
<svg version="1.1" xmlns="http://www.w3.org/2000/svg" xmlns:xlink="http://www.w3.org/1999/xlink" x="0px" y="0px" width="48px"
	 height="48px" viewBox="0 0 48 48" style="enable-background:new 0 0 48 48;" xml:space="preserve">
<g id="instagram">
	<path style="fill:#616262;" d="M42.399,11.35c0,0.63-0.517,1.15-1.149,1.15h-4.601c-0.636,0-1.149-0.52-1.149-1.15v-4.6
		c0-0.639,0.514-1.15,1.149-1.15h4.601c0.633,0,1.149,0.511,1.149,1.15 M6.75,42.4c-0.639,0-1.15-0.521-1.15-1.15V21.7h4.807
		c-0.128,0.745-0.207,1.509-0.207,2.3c0,7.613,6.178,13.799,13.801,13.799c7.618,0,13.799-6.186,13.799-13.799
		c0-0.791-0.08-1.555-0.206-2.3h4.807v19.55c0,0.629-0.517,1.15-1.149,1.15 M24,14.8c5.08,0,9.199,4.115,9.199,9.2
		c0,5.076-4.119,9.199-9.199,9.199c-5.081,0-9.201-4.123-9.201-9.199C14.799,18.915,18.919,14.8,24,14.8z M42.399,1H5.6
		C3.057,1,1,3.054,1,5.6v36.8C1,44.934,3.057,47,5.6,47h36.8C44.938,47,47,44.934,47,42.4V5.6C47,3.054,44.938,1,42.399,1z"/>
</g>
<g id="Layer_1">
</g>
</svg>
