<?xml version="1.0" encoding="iso-8859-1"?>
<!-- Generator: Adobe Illustrator 15.0.0, SVG Export Plug-In . SVG Version: 6.00 Build 0)  -->
<!DOCTYPE svg PUBLIC "-//W3C//DTD SVG 1.1//EN" "http://www.w3.org/Graphics/SVG/1.1/DTD/svg11.dtd">
<svg version="1.1" xmlns="http://www.w3.org/2000/svg" xmlns:xlink="http://www.w3.org/1999/xlink" x="0px" y="0px" width="48px"
	 height="48px" viewBox="0 0 48 48" style="enable-background:new 0 0 48 48;" xml:space="preserve">
<g id="linkedin">
	<path style="fill:#C694C3;" d="M40.1,40.1h-6.9V27.906c0-1.904-1.547-3.45-3.449-3.45c-1.905,0-3.451,1.546-3.451,3.45V40.1h-6.899
		V19.4h6.899v2.756c1.15-1.927,3.648-3.221,5.75-3.221c4.445,0,8.051,3.605,8.051,8.049 M11.35,15.513
		c-2.301,0-4.171-1.863-4.171-4.163c0-2.3,1.87-4.174,4.171-4.174c2.3,0,4.166,1.874,4.166,4.174
		C15.516,13.65,13.649,15.513,11.35,15.513z M14.799,40.1H7.899V19.4h6.899 M42.399,1H5.6C3.057,1,1,3.054,1,5.6v36.8
		C1,44.934,3.057,47,5.6,47h36.8C44.938,47,47,44.934,47,42.4V5.6C47,3.054,44.938,1,42.399,1z"/>
</g>
<g id="Layer_1">
</g>
</svg>
