<?xml version="1.0" encoding="iso-8859-1"?>
<!-- Generator: Adobe Illustrator 15.0.0, SVG Export Plug-In . SVG Version: 6.00 Build 0)  -->
<!DOCTYPE svg PUBLIC "-//W3C//DTD SVG 1.1//EN" "http://www.w3.org/Graphics/SVG/1.1/DTD/svg11.dtd">
<svg version="1.1" xmlns="http://www.w3.org/2000/svg" xmlns:xlink="http://www.w3.org/1999/xlink" x="0px" y="0px" width="48px"
	 height="48px" viewBox="0 0 48 48" style="enable-background:new 0 0 48 48;" xml:space="preserve">
<g id="login">
	<path style="fill:#010101;" d="M37.143,42.619V20.714H10.857v21.905H37.143z M37.143,16.333c2.418,0,4.381,1.962,4.381,4.381
		v21.905c0,2.417-1.963,4.381-4.381,4.381H10.857c-2.422,0-4.381-1.964-4.381-4.381V20.714c0-2.418,1.959-4.381,4.381-4.381h19.715
		v-4.381c0-3.629-2.945-6.571-6.573-6.571c-3.628,0-6.571,2.942-6.571,6.571h-4.381C13.047,5.904,17.951,1,24,1
		c6.047,0,10.954,4.904,10.954,10.952v4.381H37.143z M24,36.048c-2.421,0-4.381-1.964-4.381-4.382c0-2.416,1.96-4.381,4.381-4.381
		c2.418,0,4.381,1.965,4.381,4.381C28.381,34.084,26.418,36.048,24,36.048z"/>
</g>
<g id="Layer_1">
</g>
</svg>
