<?xml version="1.0" encoding="iso-8859-1"?>
<!-- Generator: Adobe Illustrator 15.0.0, SVG Export Plug-In . SVG Version: 6.00 Build 0)  -->
<!DOCTYPE svg PUBLIC "-//W3C//DTD SVG 1.1//EN" "http://www.w3.org/Graphics/SVG/1.1/DTD/svg11.dtd">
<svg version="1.1" xmlns="http://www.w3.org/2000/svg" xmlns:xlink="http://www.w3.org/1999/xlink" x="0px" y="0px" width="48px"
	 height="48px" viewBox="0 0 48 48" style="enable-background:new 0 0 48 48;" xml:space="preserve">
<g id="microphone">
	<path style="fill:#692C90;" d="M24,1c4.01,0,7.264,3.252,7.264,7.263v14.526c0,4.013-3.254,7.264-7.264,7.264
		c-4.012,0-7.264-3.251-7.264-7.264V8.263C16.736,4.252,19.988,1,24,1z M40.947,22.789c0,8.538-6.313,15.601-14.526,16.777V47
		h-4.842v-7.434C13.365,38.39,7.053,31.327,7.053,22.789h4.842c0,6.687,5.42,12.105,12.105,12.105
		c6.687,0,12.105-5.419,12.105-12.105H40.947z"/>
</g>
<g id="Layer_1">
</g>
</svg>
