<?xml version="1.0" encoding="iso-8859-1"?>
<!-- Generator: Adobe Illustrator 15.0.0, SVG Export Plug-In . SVG Version: 6.00 Build 0)  -->
<!DOCTYPE svg PUBLIC "-//W3C//DTD SVG 1.1//EN" "http://www.w3.org/Graphics/SVG/1.1/DTD/svg11.dtd">
<svg version="1.1" xmlns="http://www.w3.org/2000/svg" xmlns:xlink="http://www.w3.org/1999/xlink" x="0px" y="0px" width="48px"
	 height="48px" viewBox="0 0 48 48" style="enable-background:new 0 0 48 48;" xml:space="preserve">
<g id="owl">
	<path style="fill:#903F98;" d="M24,15.043c0.741-2.77,2.958-4.063,6.098-4.063c3.879,0,6.465,2.399,6.465,6.464
		c0,2.215-0.741,3.88-1.847,4.804l-9.237,8.868c-0.555,0.551-0.925,0.737-1.479,0.737c-0.552,0-0.925-0.187-1.479-0.737
		l-9.238-8.868c-1.105-0.923-1.66-2.589-1.66-4.804c0-4.065,2.4-6.464,6.278-6.464C21.044,10.98,23.26,12.274,24,15.043z M24,20.769
		c0.187,0,0.371,0,0.553-0.369l1.292-2.956c0,0,0.188-0.183,0.188-0.367c0-0.188-0.368-0.558-0.554-0.558h-2.772
		c-0.367,0-0.553,0.37-0.553,0.558c0,0.184,0,0.367,0,0.367l1.294,2.956C23.632,20.769,23.816,20.769,24,20.769z M30.098,13.563
		c-1.846,0-2.959,0.924-2.959,2.957c0,2.036,1.113,3.14,2.959,3.14s2.956-1.104,2.956-3.14
		C33.054,14.487,31.943,13.563,30.098,13.563z M17.901,13.563c-1.659,0-2.954,0.924-2.954,2.957c0,2.036,1.295,3.14,2.954,3.14
		c1.85,0,3.143-1.104,3.143-3.14C21.044,14.487,19.751,13.563,17.901,13.563z M40.629,20.214c0-4.431-0.742-7.018-2.404-10.897
		l-3.141-7.761C34.9,1.187,34.716,1,34.347,1c-0.37,0-0.556,0.187-0.74,0.555l-1.109,2.771C30.281,3.035,27.326,2.479,24,2.479
		c-3.324,0-6.278,0.556-8.311,1.848l-1.293-2.771c0-0.369-0.373-0.555-0.74-0.555c-0.187,0-0.553,0.187-0.739,0.555L9.777,9.316
		c-1.48,3.879-2.406,6.466-2.406,10.897v17.184c0,1.662,1.48,3.141,3.328,3.141h9.234v2.585h-4.062
		c-1.109,0-2.032,0.923-2.032,2.031c0,0.925,0.923,1.846,2.032,1.846h12.38c1.106,0,1.846-0.921,1.846-1.846
		c0-1.108-0.739-2.031-1.846-2.031H24v-2.771C34.9,40.352,40.629,31.3,40.629,20.214z"/>
</g>
<g id="Layer_1">
</g>
</svg>
