<?xml version="1.0" encoding="iso-8859-1"?>
<!-- Generator: Adobe Illustrator 15.0.0, SVG Export Plug-In . SVG Version: 6.00 Build 0)  -->
<!DOCTYPE svg PUBLIC "-//W3C//DTD SVG 1.1//EN" "http://www.w3.org/Graphics/SVG/1.1/DTD/svg11.dtd">
<svg version="1.1" xmlns="http://www.w3.org/2000/svg" xmlns:xlink="http://www.w3.org/1999/xlink" x="0px" y="0px" width="48px"
	 height="48px" viewBox="0 0 48 48" style="enable-background:new 0 0 48 48;" xml:space="preserve">
<g id="password">
	<path style="fill:#757576;" d="M24,36.048c2.42,0,4.381-1.968,4.381-4.381c0-2.421-1.961-4.381-4.381-4.381
		c-2.419,0-4.381,1.96-4.381,4.381C19.619,34.08,21.581,36.048,24,36.048z M37.143,16.334c2.418,0,4.381,1.959,4.381,4.381v21.904
		c0,2.413-1.963,4.382-4.381,4.382H10.857c-2.419,0-4.381-1.969-4.381-4.382V20.715c0-2.422,1.962-4.381,4.381-4.381h2.191v-4.381
		c0-6.054,4.902-10.954,10.951-10.954c6.045,0,10.953,4.9,10.953,10.954v4.381H37.143z M24,5.381c-3.627,0-6.57,2.944-6.57,6.572
		v4.381h13.143v-4.381C30.572,8.325,27.629,5.381,24,5.381z"/>
</g>
<g id="Layer_1">
</g>
</svg>
