<?xml version="1.0" encoding="iso-8859-1"?>
<!-- Generator: Adobe Illustrator 15.0.0, SVG Export Plug-In . SVG Version: 6.00 Build 0)  -->
<!DOCTYPE svg PUBLIC "-//W3C//DTD SVG 1.1//EN" "http://www.w3.org/Graphics/SVG/1.1/DTD/svg11.dtd">
<svg version="1.1" xmlns="http://www.w3.org/2000/svg" xmlns:xlink="http://www.w3.org/1999/xlink" x="0px" y="0px" width="48px"
	 height="48px" viewBox="0 0 48 48" style="enable-background:new 0 0 48 48;" xml:space="preserve">
<g id="pinterest">
	<path style="fill:#010101;" d="M26.3,33.656c-1.846,0-3.607-0.779-4.869-2.116l-2.188,7.36l-0.157,0.477l-0.072-0.027
		c-0.454,0.75-1.253,1.206-2.145,1.206c-1.396,0-2.532-1.134-2.532-2.531c0-0.116,0.014-0.225,0.034-0.335l-0.038-0.016l0.123-0.408
		l4.252-12.794c0,0-0.458-1.41-0.458-3.387c0-3.985,2.12-5.135,3.827-5.135c1.705,0,3.257,0.606,3.257,3.014
		c0,3.091-2.044,4.672-2.044,6.907c0,1.7,1.389,3.086,3.091,3.086c5.366,0,7.277-4.047,7.277-7.837c0-5.009-4.333-9.083-9.658-9.083
		c-5.328,0-9.663,4.074-9.663,9.083c0.005,1.55,0.463,3.091,1.249,4.452c0.214,0.359,0.326,0.728,0.326,1.184
		c0,1.27-1.031,2.3-2.301,2.3c-0.819,0-1.583-0.456-1.994-1.139c-1.229-2.062-1.88-4.411-1.88-6.797
		c0-7.547,6.396-13.683,14.263-13.683c7.861,0,14.258,6.136,14.258,13.683C38.258,27.158,34.514,33.656,26.3,33.656z M42.4,1H5.6
		C3.058,1,1,3.053,1,5.6V42.4C1,44.936,3.058,47,5.6,47H42.4c2.538,0,4.6-2.064,4.6-4.6V5.6C47,3.053,44.938,1,42.4,1z"/>
</g>
<g id="Layer_1">
</g>
</svg>
