<?xml version="1.0" encoding="iso-8859-1"?>
<!-- Generator: Adobe Illustrator 15.0.0, SVG Export Plug-In . SVG Version: 6.00 Build 0)  -->
<!DOCTYPE svg PUBLIC "-//W3C//DTD SVG 1.1//EN" "http://www.w3.org/Graphics/SVG/1.1/DTD/svg11.dtd">
<svg version="1.1" xmlns="http://www.w3.org/2000/svg" xmlns:xlink="http://www.w3.org/1999/xlink" x="0px" y="0px" width="48px"
	 height="48px" viewBox="0 0 48 48" style="enable-background:new 0 0 48 48;" xml:space="preserve">
<g id="Progress_x5F_bar">
	<path style="fill:#010101;" d="M35.971,36.188l3.449,3.428c2.186-2.819,3.521-6.075,3.936-9.455h-4.908
		C38.105,32.275,37.279,34.34,35.971,36.188z M26.516,42.068v4.908c3.379-0.413,6.658-1.726,9.479-3.911l-3.5-3.501
		C30.67,40.877,28.629,41.727,26.516,42.068z M43.355,25.301c-0.414-3.378-1.75-6.634-3.936-9.454l-3.449,3.452
		c1.309,1.823,2.135,3.887,2.477,6.002 M32.711,12.056L21.656,1v7.46C12.083,9.651,4.645,17.816,4.645,27.73
		c0,9.915,7.411,18.078,17.011,19.27v-4.907c-6.901-1.168-12.15-7.146-12.15-14.362c0-7.216,5.249-13.195,12.15-14.362v9.502
		L32.711,12.056z"/>
</g>
<g id="Layer_1">
</g>
</svg>
