<?xml version="1.0" encoding="iso-8859-1"?>
<!-- Generator: Adobe Illustrator 15.0.0, SVG Export Plug-In . SVG Version: 6.00 Build 0)  -->
<!DOCTYPE svg PUBLIC "-//W3C//DTD SVG 1.1//EN" "http://www.w3.org/Graphics/SVG/1.1/DTD/svg11.dtd">
<svg version="1.1" xmlns="http://www.w3.org/2000/svg" xmlns:xlink="http://www.w3.org/1999/xlink" x="0px" y="0px" width="48px"
	 height="48px" viewBox="0 0 48 48" style="enable-background:new 0 0 48 48;" xml:space="preserve">
<g id="radio_x5F_on">
	<path style="fill:#903F98;" d="M24,12.5c-6.353,0-11.5,5.148-11.5,11.5S17.647,35.5,24,35.5c6.352,0,11.5-5.148,11.5-11.5
		S30.352,12.5,24,12.5 M24,1C11.295,1,1,11.296,1,24s10.295,23,23,23c12.703,0,23-10.296,23-23S36.703,1,24,1 M24,42.4
		C13.838,42.4,5.6,34.161,5.6,24S13.838,5.6,24,5.6c10.16,0,18.399,8.239,18.399,18.4S34.16,42.4,24,42.4"/>
</g>
<g id="Layer_1">
</g>
</svg>
