<?xml version="1.0" encoding="iso-8859-1"?>
<!-- Generator: Adobe Illustrator 15.0.0, SVG Export Plug-In . SVG Version: 6.00 Build 0)  -->
<!DOCTYPE svg PUBLIC "-//W3C//DTD SVG 1.1//EN" "http://www.w3.org/Graphics/SVG/1.1/DTD/svg11.dtd">
<svg version="1.1" xmlns="http://www.w3.org/2000/svg" xmlns:xlink="http://www.w3.org/1999/xlink" x="0px" y="0px" width="48px"
	 height="48px" viewBox="0 0 48 48" style="enable-background:new 0 0 48 48;" xml:space="preserve">
<g id="search">
	<path style="fill:#692C90;" d="M47,43.123L32.653,28.781c2.038-2.853,3.256-6.345,3.256-10.113c0-9.624-7.833-17.452-17.457-17.452
		C8.833,1.216,1,9.044,1,18.668c0,9.631,7.833,17.458,17.452,17.458c3.992,0,7.664-1.37,10.607-3.627l14.285,14.285L47,43.123z
		 M6.171,18.668c0-6.771,5.509-12.28,12.281-12.28c6.771,0,12.286,5.509,12.286,12.28c0,6.778-5.515,12.281-12.286,12.281
		C11.68,30.949,6.171,25.446,6.171,18.668z"/>
</g>
<g id="Layer_1">
</g>
</svg>
