<?xml version="1.0" encoding="iso-8859-1"?>
<!-- Generator: Adobe Illustrator 15.0.0, SVG Export Plug-In . SVG Version: 6.00 Build 0)  -->
<!DOCTYPE svg PUBLIC "-//W3C//DTD SVG 1.1//EN" "http://www.w3.org/Graphics/SVG/1.1/DTD/svg11.dtd">
<svg version="1.1" xmlns="http://www.w3.org/2000/svg" xmlns:xlink="http://www.w3.org/1999/xlink" x="0px" y="0px" width="48px"
	 height="48px" viewBox="0 0 48 48" style="enable-background:new 0 0 48 48;" xml:space="preserve">
<g id="Shape_x5F_image">
	<path style="fill:#010101;" d="M24,40.561c-5.75,0-10.833-2.945-13.8-7.36c0.067-4.601,9.2-7.13,13.8-7.13S37.732,28.6,37.8,33.2
		C34.833,37.615,29.75,40.561,24,40.561z M24,7.9c3.818,0,6.9,3.082,6.9,6.9s-3.082,6.9-6.9,6.9s-6.9-3.082-6.9-6.9
		S20.182,7.9,24,7.9z M24,1C11.35,1,1,11.28,1,24c0,12.65,10.35,23,23,23s23-10.35,23-23C47,11.28,36.65,1,24,1z"/>
</g>
<g id="Layer_1">
</g>
</svg>
