<?xml version="1.0" encoding="iso-8859-1"?>
<!-- Generator: Adobe Illustrator 15.0.0, SVG Export Plug-In . SVG Version: 6.00 Build 0)  -->
<!DOCTYPE svg PUBLIC "-//W3C//DTD SVG 1.1//EN" "http://www.w3.org/Graphics/SVG/1.1/DTD/svg11.dtd">
<svg version="1.1" xmlns="http://www.w3.org/2000/svg" xmlns:xlink="http://www.w3.org/1999/xlink" x="0px" y="0px" width="48px"
	 height="48px" viewBox="0 0 48 48" style="enable-background:new 0 0 48 48;" xml:space="preserve">
<g id="twitter_x5F_2">
	<path style="fill:#010101;" d="M33.2,21.7h-6.9v8.966c0,1.685,0.33,2.534,2.529,2.534H33.2V40.1c0,0-2.367,0.228-4.832,0.228
		c-6.084,0-8.969-3.735-8.969-7.821V21.7h-4.6v-6.444c5.537-0.456,6.021-4.696,6.438-7.355H26.3V14.8h6.9 M42.399,1H5.601
		C3.058,1,1,3.053,1,5.6V42.4C1,44.934,3.058,47,5.601,47h36.799C44.938,47,47,44.934,47,42.4V5.6C47,3.053,44.938,1,42.399,1z"/>
</g>
<g id="Layer_1">
</g>
</svg>
