<?xml version="1.0" encoding="iso-8859-1"?>
<!-- Generator: Adobe Illustrator 15.0.0, SVG Export Plug-In . SVG Version: 6.00 Build 0)  -->
<!DOCTYPE svg PUBLIC "-//W3C//DTD SVG 1.1//EN" "http://www.w3.org/Graphics/SVG/1.1/DTD/svg11.dtd">
<svg version="1.1" xmlns="http://www.w3.org/2000/svg" xmlns:xlink="http://www.w3.org/1999/xlink" x="0px" y="0px" width="48px"
	 height="48px" viewBox="0 0 48 48" style="enable-background:new 0 0 48 48;" xml:space="preserve">
<g id="twitter">
	<path style="fill:#010101;" d="M37.126,17.854c-0.146,10.624-6.938,17.901-17.077,18.359c-4.18,0.189-7.214-1.158-9.849-2.834
		c3.091,0.494,6.899-0.741,8.973-2.479c-3.029-0.314-4.819-1.855-5.667-4.335c0.874,0.152,1.797,0.112,2.633-0.067
		c-2.733-0.917-4.686-2.605-4.793-6.146c0.772,0.351,1.572,0.678,2.632,0.741c-2.048-1.164-3.558-5.418-1.823-8.234
		c3.036,3.333,6.693,6.047,12.688,6.415c-1.503-6.433,7.032-9.924,10.599-5.602c1.51-0.292,2.736-0.863,3.913-1.487
		c-0.48,1.496-1.42,2.538-2.565,3.378c1.251-0.171,2.367-0.476,3.311-0.943C39.521,15.838,38.229,16.934,37.126,17.854z M42.4,1H5.6
		C3.06,1,1,3.053,1,5.6V42.4C1,44.934,3.06,47,5.6,47H42.4c2.538,0,4.6-2.066,4.6-4.6V5.6C47,3.053,44.938,1,42.4,1z"/>
</g>
<g id="Layer_1">
</g>
</svg>
