<?xml version="1.0" encoding="iso-8859-1"?>
<!-- Generator: Adobe Illustrator 15.0.0, SVG Export Plug-In . SVG Version: 6.00 Build 0)  -->
<!DOCTYPE svg PUBLIC "-//W3C//DTD SVG 1.1//EN" "http://www.w3.org/Graphics/SVG/1.1/DTD/svg11.dtd">
<svg version="1.1" xmlns="http://www.w3.org/2000/svg" xmlns:xlink="http://www.w3.org/1999/xlink" x="0px" y="0px" width="48px"
	 height="48px" viewBox="0 0 48 48" style="enable-background:new 0 0 48 48;" xml:space="preserve">
<g id="typography">
	<g>
		<path d="M41.238,13.269c-0.75-3.271-1.359-4.975-2.182-6.067c-1.088-1.634-2.246-2.111-7.357-2.111h-4.838v33.529
			c0,5.383,0.543,6.064,7.02,6.473V47H14.32v-1.908c6.204-0.408,6.748-1.09,6.748-6.473V5.09h-4.223c-5.66,0-7.02,0.547-7.907,2.111
			C8.123,8.36,7.573,10.27,6.757,13.269H4.782C5.121,9.18,5.464,4.748,5.597,1h1.365c0.954,1.567,1.837,1.704,3.745,1.704h26.917
			c1.842,0,2.387-0.408,3.48-1.704h1.432c0,3.136,0.338,8.11,0.682,12.063L41.238,13.269z"/>
	</g>
</g>
<g id="Layer_1">
</g>
</svg>
