<?xml version="1.0" standalone="no"?>
<!DOCTYPE svg PUBLIC "-//W3C//DTD SVG 1.1//EN" "http://www.w3.org/Graphics/SVG/1.1/DTD/svg11.dtd">
<svg xmlns="http://www.w3.org/2000/svg">
<metadata>Copyright (C) 2014 by original authors @ fontello.com</metadata>
<defs>
<font id="fontello" horiz-adv-x="1000" >
<font-face font-family="fontello" font-weight="400" font-stretch="normal" units-per-em="1000" ascent="850" descent="-150" />
<missing-glyph horiz-adv-x="1000" />
<glyph glyph-name="check_on" unicode="&#xe800;" d="m873 829h-746c-58 0-106-47-106-106v-746c0-59 48-106 106-106h746c59 0 106 47 106 106v746c0 59-47 106-106 106m-479-745l-267 266 76 75 191-191 403 404 76-75-479-479z" horiz-adv-x="1000" />
<glyph glyph-name="cow" unicode="&#xe801;" d="m603 215c-21 0-35-10-35-34 0-24 14-35 35-35 20 0 34 11 34 35 0 24-14 34-34 34z m34 257c17 0 27-11 27-28 0-17-10-27-27-27-14 0-24 10-24 27 0 17 10 28 24 28z m-240-257c-20 0-34-10-34-34 0-24 14-35 34-35 21 0 34 11 34 35 0 24-13 34-34 34z m-82-34c0 44 38 82 82 82h206c44 0 82-38 82-82 0-45-38-79-82-79h-206c-44 0-82 34-82 79z m48 291c14 0 24-11 24-28 0-17-10-27-24-27-17 0-27 10-27 27 0 17 10 28 27 28z m137-507c151 0 223 69 223 216v304c30-13 65-24 99-24 126 0 157 55 157 79 0 24-31 79-157 79-41 0-86-14-113-34-14 34-38 61-69 78v38c0 17-17 34-34 34-20 0-34-17-34-34v-10c-21 3-48 6-72 6-24 0-51-3-72-6v10c0 17-13 34-34 34-17 0-34-17-34-34v-38c-31-17-55-44-69-78-27 20-72 34-113 34-126 0-157-55-157-79 0-24 31-79 157-79 35 0 69 11 100 24v-304c0-147 71-216 222-216z" horiz-adv-x="1000" />
<glyph glyph-name="csform" unicode="&#xe802;" d="m974 240l-195 385c-4 6-8 11-14 15l-280 183c-13 9-31 8-44-2l-404-313c-15-11-19-31-11-48l195-385c4-6 8-11 14-15l280-183c6-4 13-6 21-6 8 0 16 2 23 8l404 313c15 11 19 31 11 48z m-110 47l-194 127-149 294 194-127 149-294z m-755 180l357 277 12-8 166-327-363-281-172 339z m425-511l-235 154 362 280 226-148 4-9-357-277z" horiz-adv-x="1000" />
<glyph glyph-name="dino" unicode="&#xe803;" d="m418 622c-9 0-19 4-19 16 0 13 10 20 19 20 10 0 16-7 16-20 0-12-6-16-16-16z m516-458c-12 0-22-6-35-13-35-32-64-64-131-64-71 0-129 55-129 145v41c0 84-60 125-157 125h-339v83c0 77 35 132 118 132 55 0 93-26 125-48 16-10 26-13 39-13 32 0 57 22 57 54 0 13-6 29-16 42-41 42-112 77-205 77-144 0-240-83-240-244v-461c0-26 22-45 48-45 26 0 45 19 45 45v64h35v-64c0-26 23-45 48-45 26 0 45 19 45 45v64h176v-64c0-26 20-45 45-45 26 0 48 19 48 45v64h32v-64c0-26 23-45 48-45 26 0 45 19 45 45v35c29-35 80-54 132-54 80 0 147 29 195 80 10 9 16 22 16 35 0 26-22 48-45 48z" horiz-adv-x="1000" />
<glyph glyph-name="done" unicode="&#xe804;" d="m173 459h-71v-218h71c28 0 50 8 67 26 18 17 26 39 26 66v34c0 27-8 49-26 66s-39 26-67 26z m57-126c0-18-5-33-16-45s-24-18-42-18h-34v160h34c18 0 32-6 42-18 11-11 16-27 16-45v-34z m160 129c-26 0-47-8-64-26-16-18-24-40-24-66v-40c0-26 8-48 24-66 17-18 38-26 64-26 27 0 49 8 65 26 17 18 25 40 25 66v40c0 26-8 48-25 66-17 18-38 26-65 26z m54-132c0-18-5-33-14-45-10-12-23-17-40-17-16 0-29 5-38 17-9 12-14 27-14 45v40c0 18 5 33 14 45 9 12 22 17 38 17 17 0 30-5 40-17s14-27 14-45v-40z m216-30l-1 0-96 159h-37v-218h37v159l0 0 97-159h37v218h-37v-159z m127-30v69h96v29h-96v62h110v29h-146v-218h147v29h-111z" horiz-adv-x="1000" />
<glyph glyph-name="error" unicode="&#xe805;" d="m43 339h95v29h-95v62h109v29h-146v-218h147v29h-110v69z m305-62v18c0 13-3 24-8 33-5 9-14 15-27 19 12 5 20 11 26 19 6 9 9 18 9 30 0 20-7 36-20 47-14 11-32 16-57 16h-81v-218h37v90h49c11 0 20-3 26-9s10-16 10-27v-18c0-7 0-14 1-21 1-7 4-12 8-15h38v3c-4 3-7 8-9 14-1 6-2 13-2 19z m-47 92c-6-5-17-8-32-8h-42v69h44c14 0 24-3 30-9s10-15 10-26c0-12-3-20-10-26z m257-92v18c0 13-3 24-8 33-6 9-15 15-27 19 11 5 20 11 26 19 6 9 8 18 8 30 0 20-6 36-19 47-14 11-33 16-57 16h-81v-218h37v90h48c11 0 20-3 27-9 6-7 9-16 9-27v-18c0-7 1-14 2-21 1-7 4-12 8-15h37v3c-4 3-6 8-8 14-1 6-2 13-2 19z m-47 92c-7-5-17-8-32-8h-42v69h44c13 0 23-3 30-9s10-15 10-26c0-12-3-20-10-26z m179 93c-26 0-48-8-64-26-16-18-25-40-25-66v-40c0-26 9-49 25-66 16-18 38-26 64-26 27 0 48 8 65 26 17 17 25 40 25 66v40c0 26-8 48-25 66-17 18-39 26-65 26z m54-132c0-18-5-33-15-45-9-12-22-17-39-17-16 0-29 5-38 17-10 12-14 27-14 45v40c0 18 4 33 14 45 9 12 22 17 38 17 16 0 30-5 39-17 10-12 15-27 15-45v-40z m242-72c-2 6-2 13-2 19v18c0 13-3 24-9 33-5 9-14 15-26 19 11 5 20 11 25 19 6 9 9 18 9 30 0 20-6 36-20 47-13 11-32 16-56 16h-81v-218h36v90h49c11 0 20-3 26-9 7-7 10-16 10-27v-18c0-7 1-14 2-21 1-7 4-12 8-15h37v3c-4 3-6 8-8 14z m-49 111c-7-5-18-8-32-8h-43v69h45c13 0 23-3 30-9 6-7 10-15 10-26 0-12-4-20-10-26z" horiz-adv-x="1000" />
<glyph glyph-name="exit" unicode="&#xe806;" d="m500 829c-265 0-479-214-479-479s214-479 479-479c265 0 479 214 479 479s-214 479-479 479z m207-644l-42-41-165 165-165-165-41 41 165 165-165 165 41 42 165-166 165 166 42-42-166-165 166-165z" horiz-adv-x="1000" />
<glyph glyph-name="facebook" unicode="&#xe807;" d="m835 733v-143h-95c-27 0-48-22-48-48v-96h143v-144h-143v-335h-144v335h-96v144h96v120c0 92 75 167 168 167m167 96h-766c-53 0-96-43-96-96v-766c0-53 43-96 96-96h766c53 0 96 43 96 96v766c0 53-43 96-96 96z" horiz-adv-x="1000" />
<glyph glyph-name="github" unicode="&#xe808;" d="m979 338c0-211-137-391-327-455-24-4-33 11-33 24 0 15 0 67 0 131 0 45-15 74-32 89 107 12 219 52 219 236 0 53-18 95-50 129 5 12 22 61-4 127 0 0-40 13-132-49-38 10-79 16-120 16-41 0-82-6-120-16-91 62-132 49-132 49-26-66-9-115-4-127-31-34-50-76-50-129 0-183 112-224 219-237-14-12-26-33-31-64-27-12-97-33-139 40 0 0-26 46-74 50 0 0-46 0-3-29 0 0 31-15 53-71 0 0 28-93 162-64 0-40 0-70 0-81 0-13-8-28-32-23-191 63-328 243-328 454 0 265 214 479 479 479 265 0 479-214 479-479z" horiz-adv-x="1000" />
<glyph glyph-name="google_plus" unicode="&#xe809;" d="m836 350h-96v-96h-48v96h-96v48h96v96h48v-96h96m-477-393c-134 0-194 75-194 145 0 21 6 76 70 114 37 22 89 38 151 43-9 12-16 26-16 48 0 7 1 15 3 22h-19c-95 0-151 74-151 146 0 83 62 172 197 172h202l-16-16-34-34-4-3h-33c19-20 43-52 43-103 0-68-36-101-75-131-8-6-21-19-21-35 0-14 12-23 19-30 7-5 14-10 23-16 39-27 92-64 92-138 0-85-62-184-237-184z m524 824h-766c-53 0-96-43-96-96v-766c0-53 43-96 96-96h766c53 0 96 43 96 96v766c0 53-43 96-96 96z m-452-566c-5 1-8 1-15 1h-1c-12 0-55-2-87-13-31-11-68-35-68-82 0-51 50-106 142-106 73 0 117 47 117 95 0 36-22 58-88 105z m31 237c0 49-30 145-100 145-31 0-63-21-63-80 0-57 30-141 94-141 3 0 69 1 69 76z" horiz-adv-x="1000" />
<glyph glyph-name="hearth" unicode="&#xe80a;" d="m716 790c-84 0-164-39-216-100-52 61-132 100-216 100-147 0-263-116-263-264 0-181 163-329 410-553l69-63 69 63c247 224 410 372 410 553 0 148-116 264-263 264z" horiz-adv-x="1000" />
<glyph glyph-name="hearth_empty" unicode="&#xe80b;" d="m505 44l-5-4-5 4c-228 207-378 344-378 482 0 96 72 168 167 168 74 0 146-48 171-113h90c25 65 97 113 171 113 96 0 167-72 167-168 0-138-150-275-378-482z m211 746c-84 0-164-39-216-100-52 61-132 100-216 100-147 0-263-116-263-264 0-181 163-329 410-553l69-63 69 63c247 224 410 372 410 553 0 148-116 264-263 264z" horiz-adv-x="1000" />
<glyph glyph-name="instagram" unicode="&#xe80c;" d="m883 614c0-14-10-24-24-24h-95c-14 0-24 10-24 24v95c0 14 10 24 24 24h95c14 0 24-10 24-24m-742-742c-14 0-24 10-24 24v407h100c-3-16-4-31-4-48 0-159 128-287 287-287 159 0 288 128 288 287 0 17-2 32-5 48h100v-407c0-14-10-24-24-24m-359 575c106 0 192-86 192-192 0-106-86-192-192-192-106 0-192 86-192 192 0 106 86 192 192 192z m383 287h-766c-53 0-96-43-96-96v-766c0-53 43-96 96-96h766c53 0 96 43 96 96v766c0 53-43 96-96 96z" horiz-adv-x="1000" />
<glyph glyph-name="layer-11" unicode="&#xe80d;" d="m505 44l-5-4-5 4c-228 207-378 344-378 482 0 96 72 168 167 168 74 0 146-48 171-113h90c25 65 97 113 171 113 96 0 167-72 167-168 0-138-150-275-378-482z m211 746c-84 0-164-39-216-100-52 61-132 100-216 100-147 0-263-116-263-264 0-181 163-329 410-553l69-63 69 63c247 224 410 372 410 553 0 148-116 264-263 264z" horiz-adv-x="1000" />
<glyph glyph-name="linkedin" unicode="&#xe80e;" d="m835 15h-143v254c0 39-33 72-72 72-40 0-72-33-72-72v-254h-144v431h144v-58c24 41 76 68 120 68 92 0 167-76 167-168m-598 239c-48 0-87 39-87 87 0 48 39 87 87 87 47 0 86-39 86-87 0-48-39-87-86-87z m71-512h-143v431h143m575 383h-766c-53 0-96-43-96-96v-766c0-53 43-96 96-96h766c53 0 96 43 96 96v766c0 53-43 96-96 96z" horiz-adv-x="1000" />
<glyph glyph-name="microphone" unicode="&#xe80f;" d="m500 829c84 0 151-68 151-151v-303c0-83-67-151-151-151-84 0-151 68-151 151v303c0 83 67 151 151 151z m353-454c0-178-131-325-303-349v-155h-100v155c-172 24-303 171-303 349h101c0-139 113-252 252-252 139 0 252 113 252 252h101z" horiz-adv-x="1000" />
<glyph glyph-name="ok" unicode="&#xe810;" d="m979 640l-657-657-301 301 77 77 224-223 580 579 77-77z" horiz-adv-x="1000" />
<glyph glyph-name="pinguin" unicode="&#xe811;" d="m522 549c4 0 7-4 7-8 0-3 0-3 0-7l-22-47c0-4-3-4-7-4-4 0-7 0-7 4l-22 47c0 4 0 4 0 7 0 4 4 8 7 8h44z m58 0c-14 0-25 7-25 25 0 15 11 22 25 22 15 0 22-7 22-22 0-18-7-25-22-25z m-157 0c-14 0-25 7-25 25 0 15 11 22 25 22 15 0 22-7 22-22 0-18-7-25-22-25z m77-121c117 0 179-51 179-145v-204c0-92-62-146-179-146s-182 54-182 146v204c0 94 65 145 182 145z m200-557c30 0 55 22 55 51v284l62-62c18-18 33-29 55-29 22 0 40 11 62 33 18 18 29 36 29 58 0 18-7 37-29 58l-179 179v182c0 131-87 204-255 204-168 0-255-73-255-204v-182l-179-179c-21-21-29-40-29-58 0-22 11-40 29-58 22-22 41-33 62-33 22 0 37 11 55 29l62 62v-284c0-29 25-51 55-51h400z" horiz-adv-x="1000" />
<glyph glyph-name="pinterest" unicode="&#xe812;" d="m548 149c-38 0-75 16-101 44l-46-153-3-10-2 0c-9-15-26-25-45-25-29 0-52 24-52 53 0 2 0 5 0 7l0 0 2 9 89 266c0 0-10 30-10 71 0 83 44 107 80 107 36 0 68-13 68-63 0-64-43-97-43-144 0-35 29-64 65-64 111 0 151 84 151 163 0 104-90 189-201 189-111 0-201-85-201-189 0-32 9-64 26-93 4-7 7-15 7-24 0-27-22-48-48-48-17 0-33 9-42 23-26 43-39 92-39 142 0 157 133 285 297 285 164 0 297-128 297-285 0-126-78-261-249-261z m335 680h-766c-53 0-96-43-96-96v-766c0-53 43-96 96-96h766c53 0 96 43 96 96v766c0 53-43 96-96 96z" horiz-adv-x="1000" />
<glyph glyph-name="play" unicode="&#xe813;" d="m877 350l-753-479v958l753-479z" horiz-adv-x="1000" />
<glyph glyph-name="radio_off" unicode="&#xe814;" d="m500 829c-265 0-479-214-479-479s214-479 479-479c265 0 479 214 479 479s-214 479-479 479m0-862c-212 0-383 171-383 383s171 383 383 383c212 0 383-171 383-383s-171-383-383-383" horiz-adv-x="1000" />
<glyph glyph-name="radio_on" unicode="&#xe815;" d="m500 590c-132 0-240-108-240-240s108-240 240-240c132 0 240 108 240 240s-108 240-240 240m0 239c-265 0-479-214-479-479s214-479 479-479c265 0 479 214 479 479s-214 479-479 479m0-862c-212 0-383 171-383 383s171 383 383 383c212 0 383-171 383-383s-171-383-383-383" horiz-adv-x="1000" />
<glyph glyph-name="search" unicode="&#xe816;" d="m979-48l-299 298c43 60 68 133 68 211 0 201-163 364-364 364-200 0-363-163-363-364 0-201 163-364 363-364 84 0 160 29 221 76l298-298 76 77z m-850 509c0 141 114 256 255 256 142 0 256-115 256-256 0-141-114-256-256-256-141 0-255 115-255 256z" horiz-adv-x="1000" />
<glyph glyph-name="stop" unicode="&#xe817;" d="m979-129h-958v958h958v-958z" horiz-adv-x="1000" />
<glyph glyph-name="twitter" unicode="&#xe818;" d="m774 478c-4-221-145-373-356-382-87-4-151 24-205 59 64-11 143 15 186 51-63 7-100 39-118 91 19-4 38-3 55 1-57 19-97 54-100 128 17-7 33-14 55-15-42 24-74 112-38 171 64-69 140-126 265-133-32 134 146 206 220 116 32 6 57 18 82 31-10-31-30-53-53-70 26 3 49 10 68 19-12-25-39-48-61-67z m109 351h-766c-53 0-96-43-96-96v-766c0-53 43-96 96-96h766c53 0 96 43 96 96v766c0 53-43 96-96 96z" horiz-adv-x="1000" />
<glyph glyph-name="twitter_2" unicode="&#xe819;" d="m692 398h-144v-187c0-35 7-53 53-53h91v-143c0 0-50-5-101-5-127 0-187 78-187 163v225h-96v134c116 10 126 98 134 153h106v-143h144m191 287h-766c-53 0-96-43-96-96v-766c0-53 43-96 96-96h766c53 0 96 43 96 96v766c0 53-43 96-96 96z" horiz-adv-x="1000" />
<glyph glyph-name="upload" unicode="&#xe81a;" d="m580 310v-160h-160v160h-120l200 200 200-200m94 119c-27 137-149 240-294 240-115 0-215-65-265-161-121-13-214-114-214-238 0-132 107-239 239-239h520c110 0 199 89 199 199 0 106-82 191-185 199z" horiz-adv-x="1000" />
<glyph glyph-name="user" unicode="&#xe81b;" d="m500 829c132 0 240-107 240-239s-108-240-240-240c-132 0-240 107-240 240s108 239 240 239z m0-599c265 0 479-107 479-239v-120h-958v120c0 132 214 239 479 239z" horiz-adv-x="1000" />
<glyph glyph-name="back" unicode="&#xe81c;" d="m979 411v-121h-726l333-333-86-86-479 479 479 479 86-86-333-332h726z" horiz-adv-x="1000" />
<glyph glyph-name="bell" unicode="&#xe81d;" d="m596-33c0-53-43-96-96-96-53 0-96 43-96 96h192z m-96 862c27 0 48-21 48-48v-52c136-22 240-141 240-283v-288l143-143h-862l144 143v288c0 142 103 261 239 283v52c0 27 22 48 48 48z" horiz-adv-x="1000" />
<glyph glyph-name="blog" unicode="&#xe81e;" d="m596 302h-194c-27 0-48-21-48-48 0-26 21-48 48-48h194c26 0 48 22 48 48 0 27-22 48-48 48z m-194 144h124c27 0 48 21 48 48 0 26-21 48-48 48h-124c-27 0-48-22-48-48 0-27 21-48 48-48z m290 48v-48c0-27 21-48 48-48 26 0 48-21 48-48v-144c0-79-65-143-144-143h-288c-79 0-143 64-143 143v336c0 79 64 143 143 143h192c79 0 144-64 144-143m191 287h-766c-53 0-96-43-96-96v-766c0-53 43-96 96-96h766c53 0 96 43 96 96v766c0 53-43 96-96 96z" horiz-adv-x="1000" />
<glyph glyph-name="cancel" unicode="&#xe81f;" d="m596 350l383-383-96-96-383 383-383-383-96 96 383 383-383 383 96 96 383-383 383 383 96-96-383-383z" horiz-adv-x="1000" />
<glyph glyph-name="check_off" unicode="&#xe820;" d="m873 723v-746l-746 0v746h746m0 106h-746c-58 0-106-47-106-106v-746c0-59 48-106 106-106h746c59 0 106 47 106 106v746c0 59-47 106-106 106" horiz-adv-x="1000" />
<glyph glyph-name="drag_drop" unicode="&#xe821;" d="m245 733v-128h510v128h-510z m0-447h510v128h-510v-128z m0-319h510v128h-510v-128z" horiz-adv-x="1000" />
<glyph glyph-name="pause" unicode="&#xe822;" d="m637-129h274v958h-274m-548-958h274v958h-274v-958z" horiz-adv-x="1000" />
<glyph glyph-name="password" unicode="&#xe823;" d="m500 99c50 0 91 41 91 91 0 51-41 92-91 92-50 0-91-41-91-92 0-50 41-91 91-91z m274 411c50 0 91-41 91-92v-456c0-50-41-91-91-91h-548c-50 0-91 41-91 91v456c0 51 41 92 91 92h46v91c0 126 102 228 228 228 126 0 228-102 228-228v-91h46z m-274 228c-76 0-137-61-137-137v-91h274v91c0 76-61 137-137 137z" horiz-adv-x="1000" />
<glyph glyph-name="owl" unicode="&#xe824;" d="m500 537c15 57 62 84 127 84 81 0 135-50 135-134 0-47-16-81-39-100l-192-185c-12-12-19-16-31-16-11 0-19 4-31 16l-192 185c-23 19-35 53-35 100 0 84 50 134 131 134 65 0 112-27 127-84z m0-120c4 0 8 0 12 8l26 62c0 0 4 3 4 7 0 4-7 12-11 12h-58c-8 0-11-8-11-12 0-4 0-7 0-7l27-62c3-8 7-8 11-8z m127 150c-38 0-62-19-62-61 0-43 24-66 62-66s62 23 62 66c0 42-23 61-62 61z m-254 0c-35 0-62-19-62-61 0-43 27-66 62-66 39 0 65 23 65 66 0 42-26 61-65 61z m473-138c0 92-15 146-50 227l-65 162c-4 7-8 11-15 11-8 0-12-4-16-11l-23-58c-46 27-108 38-177 38-69 0-131-11-173-38l-27 58c0 7-8 11-15 11-4 0-12-4-16-11l-65-162c-31-81-50-135-50-227v-358c0-35 30-65 69-65h192v-54h-84c-23 0-43-20-43-43 0-19 20-38 43-38h258c23 0 38 19 38 38 0 23-15 43-38 43h-89v57c227 0 346 189 346 420z" horiz-adv-x="1000" />
<glyph glyph-name="upload-1" unicode="&#xe825;" d="m580 310v-160h-160v160h-120l200 200 200-200m94 119c-27 137-149 240-294 240-115 0-215-65-265-161-121-13-214-114-214-238 0-132 107-239 239-239h520c110 0 199 89 199 199 0 106-82 191-185 199z" horiz-adv-x="1000" />
<glyph glyph-name="user-1" unicode="&#xe826;" d="m500 829c132 0 240-107 240-239s-108-240-240-240c-132 0-240 107-240 240s108 239 240 239z m0-599c265 0 479-107 479-239v-120h-958v120c0 132 214 239 479 239z" horiz-adv-x="1000" />
<glyph glyph-name="back-1" unicode="&#xe827;" d="m979 411v-121h-726l333-333-86-86-479 479 479 479 86-86-333-332h726z" horiz-adv-x="1000" />
<glyph glyph-name="hearth-1" unicode="&#xe828;" d="m716 790c-84 0-164-39-216-100-52 61-132 100-216 100-147 0-263-116-263-264 0-181 163-329 410-553l69-63 69 63c247 224 410 372 410 553 0 148-116 264-263 264z" horiz-adv-x="1000" />
<glyph glyph-name="hearth_empty-1" unicode="&#xe829;" d="m505 44l-5-4-5 4c-228 207-378 344-378 482 0 96 72 168 167 168 74 0 146-48 171-113h90c25 65 97 113 171 113 96 0 167-72 167-168 0-138-150-275-378-482z m211 746c-84 0-164-39-216-100-52 61-132 100-216 100-147 0-263-116-263-264 0-181 163-329 410-553l69-63 69 63c247 224 410 372 410 553 0 148-116 264-263 264z" horiz-adv-x="1000" />
<glyph glyph-name="instagram-1" unicode="&#xe82a;" d="m883 614c0-14-10-24-24-24h-95c-14 0-24 10-24 24v95c0 14 10 24 24 24h95c14 0 24-10 24-24m-742-742c-14 0-24 10-24 24v407h100c-3-16-4-31-4-48 0-159 128-287 287-287 159 0 288 128 288 287 0 17-2 32-5 48h100v-407c0-14-10-24-24-24m-359 575c106 0 192-86 192-192 0-106-86-192-192-192-106 0-192 86-192 192 0 106 86 192 192 192z m383 287h-766c-53 0-96-43-96-96v-766c0-53 43-96 96-96h766c53 0 96 43 96 96v766c0 53-43 96-96 96z" horiz-adv-x="1000" />
<glyph glyph-name="shape_image" unicode="&#xe82b;" d="m500 5c-120 0-226 61-287 153 1 96 191 149 287 149s286-53 288-149c-62-92-168-153-288-153z m0 680c80 0 144-64 144-143s-64-144-144-144-144 64-144 144 65 143 144 143z m0 144c-263 0-479-214-479-479 0-263 216-479 479-479s479 216 479 479c0 265-215 479-479 479z" horiz-adv-x="1000" />
<glyph glyph-name="splash_screen" unicode="&#xe82c;" d="m731 102v153h-332v190h332v154l248-249-248-248z m-190 721c52 0 95-42 95-94v-190h-95v190h-425v-758h425v190h95v-190c0-52-43-94-95-94h-425c-53 0-95 42-95 94v758c0 52 42 94 95 94h425z" horiz-adv-x="1000" />
<glyph glyph-name="stop-1" unicode="&#xe82d;" d="m979-129h-958v958h958v-958z" horiz-adv-x="1000" />
<glyph glyph-name="bell-1" unicode="&#xe82e;" d="m596-33c0-53-43-96-96-96-53 0-96 43-96 96h192z m-96 862c27 0 48-21 48-48v-52c136-22 240-141 240-283v-288l143-143h-862l144 143v288c0 142 103 261 239 283v52c0 27 22 48 48 48z" horiz-adv-x="1000" />
<glyph glyph-name="blog-1" unicode="&#xe82f;" d="m596 302h-194c-27 0-48-21-48-48 0-26 21-48 48-48h194c26 0 48 22 48 48 0 27-22 48-48 48z m-194 144h124c27 0 48 21 48 48 0 26-21 48-48 48h-124c-27 0-48-22-48-48 0-27 21-48 48-48z m290 48v-48c0-27 21-48 48-48 26 0 48-21 48-48v-144c0-79-65-143-144-143h-288c-79 0-143 64-143 143v336c0 79 64 143 143 143h192c79 0 144-64 144-143m191 287h-766c-53 0-96-43-96-96v-766c0-53 43-96 96-96h766c53 0 96 43 96 96v766c0 53-43 96-96 96z" horiz-adv-x="1000" />
<glyph glyph-name="cancel-1" unicode="&#xe830;" d="m596 350l383-383-96-96-383 383-383-383-96 96 383 383-383 383 96 96 383-383 383 383 96-96-383-383z" horiz-adv-x="1000" />
<glyph glyph-name="check_box" unicode="&#xe831;" d="m873-23h-746v746h533v106h-533c-58 0-106-47-106-106v-746c0-58 48-106 106-106h746c58 0 106 48 106 106v426h-106m-590 49l-76-75 240-240 532 532-75 76-457-457-164 164z" horiz-adv-x="1000" />
<glyph glyph-name="check_off-1" unicode="&#xe832;" d="m873 723v-746l-746 0v746h746m0 106h-746c-58 0-106-47-106-106v-746c0-59 48-106 106-106h746c59 0 106 47 106 106v746c0 59-47 106-106 106" horiz-adv-x="1000" />
<glyph glyph-name="check_on-1" unicode="&#xe833;" d="m873 829h-746c-58 0-106-47-106-106v-746c0-59 48-106 106-106h746c59 0 106 47 106 106v746c0 59-47 106-106 106m-479-745l-267 266 76 75 191-191 403 404 76-75-479-479z" horiz-adv-x="1000" />
<glyph glyph-name="cow-1" unicode="&#xe834;" d="m603 215c-21 0-35-10-35-34 0-24 14-35 35-35 20 0 34 11 34 35 0 24-14 34-34 34z m34 257c17 0 27-11 27-28 0-17-10-27-27-27-14 0-24 10-24 27 0 17 10 28 24 28z m-240-257c-20 0-34-10-34-34 0-24 14-35 34-35 21 0 34 11 34 35 0 24-13 34-34 34z m-82-34c0 44 38 82 82 82h206c44 0 82-38 82-82 0-45-38-79-82-79h-206c-44 0-82 34-82 79z m48 291c14 0 24-11 24-28 0-17-10-27-24-27-17 0-27 10-27 27 0 17 10 28 27 28z m137-507c151 0 223 69 223 216v304c30-13 65-24 99-24 126 0 157 55 157 79 0 24-31 79-157 79-41 0-86-14-113-34-14 34-38 61-69 78v38c0 17-17 34-34 34-20 0-34-17-34-34v-10c-21 3-48 6-72 6-24 0-51-3-72-6v10c0 17-13 34-34 34-17 0-34-17-34-34v-38c-31-17-55-44-69-78-27 20-72 34-113 34-126 0-157-55-157-79 0-24 31-79 157-79 35 0 69 11 100 24v-304c0-147 71-216 222-216z" horiz-adv-x="1000" />
<glyph glyph-name="csform-1" unicode="&#xe835;" d="m974 240l-195 385c-4 6-8 11-14 15l-280 183c-13 9-31 8-44-2l-404-313c-15-11-19-31-11-48l195-385c4-6 8-11 14-15l280-183c6-4 13-6 21-6 8 0 16 2 23 8l404 313c15 11 19 31 11 48z m-110 47l-194 127-149 294 194-127 149-294z m-755 180l357 277 12-8 166-327-363-281-172 339z m425-511l-235 154 362 280 226-148 4-9-357-277z" horiz-adv-x="1000" />
<glyph glyph-name="dino-1" unicode="&#xe836;" d="m418 622c-9 0-19 4-19 16 0 13 10 20 19 20 10 0 16-7 16-20 0-12-6-16-16-16z m516-458c-12 0-22-6-35-13-35-32-64-64-131-64-71 0-129 55-129 145v41c0 84-60 125-157 125h-339v83c0 77 35 132 118 132 55 0 93-26 125-48 16-10 26-13 39-13 32 0 57 22 57 54 0 13-6 29-16 42-41 42-112 77-205 77-144 0-240-83-240-244v-461c0-26 22-45 48-45 26 0 45 19 45 45v64h35v-64c0-26 23-45 48-45 26 0 45 19 45 45v64h176v-64c0-26 20-45 45-45 26 0 48 19 48 45v64h32v-64c0-26 23-45 48-45 26 0 45 19 45 45v35c29-35 80-54 132-54 80 0 147 29 195 80 10 9 16 22 16 35 0 26-22 48-45 48z" horiz-adv-x="1000" />
<glyph glyph-name="done-1" unicode="&#xe837;" d="m173 459h-71v-218h71c28 0 50 8 67 26 18 17 26 39 26 66v34c0 27-8 49-26 66s-39 26-67 26z m57-126c0-18-5-33-16-45s-24-18-42-18h-34v160h34c18 0 32-6 42-18 11-11 16-27 16-45v-34z m160 129c-26 0-47-8-64-26-16-18-24-40-24-66v-40c0-26 8-48 24-66 17-18 38-26 64-26 27 0 49 8 65 26 17 18 25 40 25 66v40c0 26-8 48-25 66-17 18-38 26-65 26z m54-132c0-18-5-33-14-45-10-12-23-17-40-17-16 0-29 5-38 17-9 12-14 27-14 45v40c0 18 5 33 14 45 9 12 22 17 38 17 17 0 30-5 40-17s14-27 14-45v-40z m216-30l-1 0-96 159h-37v-218h37v159l0 0 97-159h37v218h-37v-159z m127-30v69h96v29h-96v62h110v29h-146v-218h147v29h-111z" horiz-adv-x="1000" />
<glyph glyph-name="drag_drop-1" unicode="&#xe838;" d="m245 733v-128h510v128h-510z m0-447h510v128h-510v-128z m0-319h510v128h-510v-128z" horiz-adv-x="1000" />
<glyph glyph-name="error-1" unicode="&#xe839;" d="m43 339h95v29h-95v62h109v29h-146v-218h147v29h-110v69z m305-62v18c0 13-3 24-8 33-5 9-14 15-27 19 12 5 20 11 26 19 6 9 9 18 9 30 0 20-7 36-20 47-14 11-32 16-57 16h-81v-218h37v90h49c11 0 20-3 26-9s10-16 10-27v-18c0-7 0-14 1-21 1-7 4-12 8-15h38v3c-4 3-7 8-9 14-1 6-2 13-2 19z m-47 92c-6-5-17-8-32-8h-42v69h44c14 0 24-3 30-9s10-15 10-26c0-12-3-20-10-26z m257-92v18c0 13-3 24-8 33-6 9-15 15-27 19 11 5 20 11 26 19 6 9 8 18 8 30 0 20-6 36-19 47-14 11-33 16-57 16h-81v-218h37v90h48c11 0 20-3 27-9 6-7 9-16 9-27v-18c0-7 1-14 2-21 1-7 4-12 8-15h37v3c-4 3-6 8-8 14-1 6-2 13-2 19z m-47 92c-7-5-17-8-32-8h-42v69h44c13 0 23-3 30-9s10-15 10-26c0-12-3-20-10-26z m179 93c-26 0-48-8-64-26-16-18-25-40-25-66v-40c0-26 9-49 25-66 16-18 38-26 64-26 27 0 48 8 65 26 17 17 25 40 25 66v40c0 26-8 48-25 66-17 18-39 26-65 26z m54-132c0-18-5-33-15-45-9-12-22-17-39-17-16 0-29 5-38 17-10 12-14 27-14 45v40c0 18 4 33 14 45 9 12 22 17 38 17 16 0 30-5 39-17 10-12 15-27 15-45v-40z m242-72c-2 6-2 13-2 19v18c0 13-3 24-9 33-5 9-14 15-26 19 11 5 20 11 25 19 6 9 9 18 9 30 0 20-6 36-20 47-13 11-32 16-56 16h-81v-218h36v90h49c11 0 20-3 26-9 7-7 10-16 10-27v-18c0-7 1-14 2-21 1-7 4-12 8-15h37v3c-4 3-6 8-8 14z m-49 111c-7-5-18-8-32-8h-43v69h45c13 0 23-3 30-9 6-7 10-15 10-26 0-12-4-20-10-26z" horiz-adv-x="1000" />
<glyph glyph-name="exit-1" unicode="&#xe83a;" d="m500 829c-265 0-479-214-479-479s214-479 479-479c265 0 479 214 479 479s-214 479-479 479z m207-644l-42-41-165 165-165-165-41 41 165 165-165 165 41 42 165-166 165 166 42-42-166-165 166-165z" horiz-adv-x="1000" />
<glyph glyph-name="facebook-1" unicode="&#xe83b;" d="m835 733v-143h-95c-27 0-48-22-48-48v-96h143v-144h-143v-335h-144v335h-96v144h96v120c0 92 75 167 168 167m167 96h-766c-53 0-96-43-96-96v-766c0-53 43-96 96-96h766c53 0 96 43 96 96v766c0 53-43 96-96 96z" horiz-adv-x="1000" />
<glyph glyph-name="gallery" unicode="&#xe83c;" d="m740-129h239v239h-239m0 120h239v240h-239m-360 120h240v239h-240m360-239h239v239h-239m-360-599h240v240h-240m-359-240h239v240h-239m0-599h239v239h-239m359-239h240v239h-240m-359 480h239v239h-239v-239z" horiz-adv-x="1000" />
<glyph glyph-name="github-1" unicode="&#xe83d;" d="m979 338c0-211-137-391-327-455-24-4-33 11-33 24 0 15 0 67 0 131 0 45-15 74-32 89 107 12 219 52 219 236 0 53-18 95-50 129 5 12 22 61-4 127 0 0-40 13-132-49-38 10-79 16-120 16-41 0-82-6-120-16-91 62-132 49-132 49-26-66-9-115-4-127-31-34-50-76-50-129 0-183 112-224 219-237-14-12-26-33-31-64-27-12-97-33-139 40 0 0-26 46-74 50 0 0-46 0-3-29 0 0 31-15 53-71 0 0 28-93 162-64 0-40 0-70 0-81 0-13-8-28-32-23-191 63-328 243-328 454 0 265 214 479 479 479 265 0 479-214 479-479z" horiz-adv-x="1000" />
<glyph glyph-name="google_plus-1" unicode="&#xe83e;" d="m836 350h-96v-96h-48v96h-96v48h96v96h48v-96h96m-477-393c-134 0-194 75-194 145 0 21 6 76 70 114 37 22 89 38 151 43-9 12-16 26-16 48 0 7 1 15 3 22h-19c-95 0-151 74-151 146 0 83 62 172 197 172h202l-16-16-34-34-4-3h-33c19-20 43-52 43-103 0-68-36-101-75-131-8-6-21-19-21-35 0-14 12-23 19-30 7-5 14-10 23-16 39-27 92-64 92-138 0-85-62-184-237-184z m524 824h-766c-53 0-96-43-96-96v-766c0-53 43-96 96-96h766c53 0 96 43 96 96v766c0 53-43 96-96 96z m-452-566c-5 1-8 1-15 1h-1c-12 0-55-2-87-13-31-11-68-35-68-82 0-51 50-106 142-106 73 0 117 47 117 95 0 36-22 58-88 105z m31 237c0 49-30 145-100 145-31 0-63-21-63-80 0-57 30-141 94-141 3 0 69 1 69 76z" horiz-adv-x="1000" />
<glyph glyph-name="left_menu" unicode="&#xe83f;" d="m452 98v156h-335v192h335v156l252-252-252-252z m-96 731h432c52 0 95-43 95-96v-766c0-53-43-96-95-96h-432c-52 0-96 43-96 96v191h96v-191h432v766h-432v-191h-96v191c0 53 44 96 96 96z" horiz-adv-x="1000" />
<glyph glyph-name="linkedin-1" unicode="&#xe840;" d="m835 15h-143v254c0 39-33 72-72 72-40 0-72-33-72-72v-254h-144v431h144v-58c24 41 76 68 120 68 92 0 167-76 167-168m-598 239c-48 0-87 39-87 87 0 48 39 87 87 87 47 0 86-39 86-87 0-48-39-87-86-87z m71-512h-143v431h143m575 383h-766c-53 0-96-43-96-96v-766c0-53 43-96 96-96h766c53 0 96 43 96 96v766c0 53-43 96-96 96z" horiz-adv-x="1000" />
<glyph glyph-name="list_views" unicode="&#xe841;" d="m21 829h958v-106h-958v106z m0-213h958v-106h-958v106z m0-213h958v-106h-958v106z m0-213h958v-106h-958v106z m0-213h958v-106h-958v106z" horiz-adv-x="1000" />
<glyph glyph-name="login" unicode="&#xe842;" d="m774-38v457h-548v-457h548z m0 548c50 0 91-41 91-91v-457c0-50-41-91-91-91h-548c-50 0-91 41-91 91v457c0 50 41 91 91 91h411v91c0 76-61 137-137 137-76 0-137-61-137-137h-91c0 126 102 228 228 228 126 0 228-102 228-228v-91h46z m-274-411c-50 0-91 41-91 91 0 51 41 92 91 92 50 0 91-41 91-92 0-50-41-91-91-91z" horiz-adv-x="1000" />
<glyph glyph-name="microphone-1" unicode="&#xe843;" d="m500 829c84 0 151-68 151-151v-303c0-83-67-151-151-151-84 0-151 68-151 151v303c0 83 67 151 151 151z m353-454c0-178-131-325-303-349v-155h-100v155c-172 24-303 171-303 349h101c0-139 113-252 252-252 139 0 252 113 252 252h101z" horiz-adv-x="1000" />
<glyph glyph-name="ok-1" unicode="&#xe844;" d="m979 640l-657-657-301 301 77 77 224-223 580 579 77-77z" horiz-adv-x="1000" />
<glyph glyph-name="owl-1" unicode="&#xe845;" d="m500 537c15 57 62 84 127 84 81 0 135-50 135-134 0-47-16-81-39-100l-192-185c-12-12-19-16-31-16-11 0-19 4-31 16l-192 185c-23 19-35 53-35 100 0 84 50 134 131 134 65 0 112-27 127-84z m0-120c4 0 8 0 12 8l26 62c0 0 4 3 4 7 0 4-7 12-11 12h-58c-8 0-11-8-11-12 0-4 0-7 0-7l27-62c3-8 7-8 11-8z m127 150c-38 0-62-19-62-61 0-43 24-66 62-66s62 23 62 66c0 42-23 61-62 61z m-254 0c-35 0-62-19-62-61 0-43 27-66 62-66 39 0 65 23 65 66 0 42-26 61-65 61z m473-138c0 92-15 146-50 227l-65 162c-4 7-8 11-15 11-8 0-12-4-16-11l-23-58c-46 27-108 38-177 38-69 0-131-11-173-38l-27 58c0 7-8 11-15 11-4 0-12-4-16-11l-65-162c-31-81-50-135-50-227v-358c0-35 30-65 69-65h192v-54h-84c-23 0-43-20-43-43 0-19 20-38 43-38h258c23 0 38 19 38 38 0 23-15 43-38 43h-89v57c227 0 346 189 346 420z" horiz-adv-x="1000" />
<glyph glyph-name="parallax" unicode="&#xe846;" d="m418 303h561v94h-561m0-374h561v93h-561m0 468h561v93h-561m-187-93h117l-163 163-164-163h117v-468h-117l164-163 163 163h-117v468z" horiz-adv-x="1000" />
<glyph glyph-name="password-1" unicode="&#xe847;" d="m500 99c50 0 91 41 91 91 0 51-41 92-91 92-50 0-91-41-91-92 0-50 41-91 91-91z m274 411c50 0 91-41 91-92v-456c0-50-41-91-91-91h-548c-50 0-91 41-91 91v456c0 51 41 92 91 92h46v91c0 126 102 228 228 228 126 0 228-102 228-228v-91h46z m-274 228c-76 0-137-61-137-137v-91h274v91c0 76-61 137-137 137z" horiz-adv-x="1000" />
<glyph glyph-name="pause-1" unicode="&#xe848;" d="m637-129h274v958h-274m-548-958h274v958h-274v-958z" horiz-adv-x="1000" />
<glyph glyph-name="pinguin-1" unicode="&#xe849;" d="m522 549c4 0 7-4 7-8 0-3 0-3 0-7l-22-47c0-4-3-4-7-4-4 0-7 0-7 4l-22 47c0 4 0 4 0 7 0 4 4 8 7 8h44z m58 0c-14 0-25 7-25 25 0 15 11 22 25 22 15 0 22-7 22-22 0-18-7-25-22-25z m-157 0c-14 0-25 7-25 25 0 15 11 22 25 22 15 0 22-7 22-22 0-18-7-25-22-25z m77-121c117 0 179-51 179-145v-204c0-92-62-146-179-146s-182 54-182 146v204c0 94 65 145 182 145z m200-557c30 0 55 22 55 51v284l62-62c18-18 33-29 55-29 22 0 40 11 62 33 18 18 29 36 29 58 0 18-7 37-29 58l-179 179v182c0 131-87 204-255 204-168 0-255-73-255-204v-182l-179-179c-21-21-29-40-29-58 0-22 11-40 29-58 22-22 41-33 62-33 22 0 37 11 55 29l62 62v-284c0-29 25-51 55-51h400z" horiz-adv-x="1000" />
<glyph glyph-name="pinterest-1" unicode="&#xe84a;" d="m548 149c-38 0-75 16-101 44l-46-153-3-10-2 0c-9-15-26-25-45-25-29 0-52 24-52 53 0 2 0 5 0 7l0 0 2 9 89 266c0 0-10 30-10 71 0 83 44 107 80 107 36 0 68-13 68-63 0-64-43-97-43-144 0-35 29-64 65-64 111 0 151 84 151 163 0 104-90 189-201 189-111 0-201-85-201-189 0-32 9-64 26-93 4-7 7-15 7-24 0-27-22-48-48-48-17 0-33 9-42 23-26 43-39 92-39 142 0 157 133 285 297 285 164 0 297-128 297-285 0-126-78-261-249-261z m335 680h-766c-53 0-96-43-96-96v-766c0-53 43-96 96-96h766c53 0 96 43 96 96v766c0 53-43 96-96 96z" horiz-adv-x="1000" />
<glyph glyph-name="play-1" unicode="&#xe84b;" d="m877 350l-753-479v958l753-479z" horiz-adv-x="1000" />
<glyph glyph-name="progress_bar" unicode="&#xe84c;" d="m749 96l72-71c46 58 74 126 82 197h-102c-7-44-24-87-52-126z m-197-122v-103c71 9 139 36 198 82l-73 73c-38-28-81-45-125-52z m351 349c-8 70-36 138-82 197l-72-72c28-38 45-81 52-125m-119 276l-231 230v-155c-199-25-354-195-354-402 0-206 154-376 354-401v102c-144 24-253 149-253 299 0 151 109 275 253 300v-198l231 225z" horiz-adv-x="1000" />
<glyph glyph-name="radio_off-1" unicode="&#xe84d;" d="m500 829c-265 0-479-214-479-479s214-479 479-479c265 0 479 214 479 479s-214 479-479 479m0-862c-212 0-383 171-383 383s171 383 383 383c212 0 383-171 383-383s-171-383-383-383" horiz-adv-x="1000" />
<glyph glyph-name="radio_on-1" unicode="&#xe84e;" d="m500 590c-132 0-240-108-240-240s108-240 240-240c132 0 240 108 240 240s-108 240-240 240m0 239c-265 0-479-214-479-479s214-479 479-479c265 0 479 214 479 479s-214 479-479 479m0-862c-212 0-383 171-383 383s171 383 383 383c212 0 383-171 383-383s-171-383-383-383" horiz-adv-x="1000" />
<glyph glyph-name="search-1" unicode="&#xe84f;" d="m979-48l-299 298c43 60 68 133 68 211 0 201-163 364-364 364-200 0-363-163-363-364 0-201 163-364 363-364 84 0 160 29 221 76l298-298 76 77z m-850 509c0 141 114 256 255 256 142 0 256-115 256-256 0-141-114-256-256-256-141 0-255 115-255 256z" horiz-adv-x="1000" />
<glyph glyph-name="twitter-1" unicode="&#xe850;" d="m774 478c-4-221-145-373-356-382-87-4-151 24-205 59 64-11 143 15 186 51-63 7-100 39-118 91 19-4 38-3 55 1-57 19-97 54-100 128 17-7 33-14 55-15-42 24-74 112-38 171 64-69 140-126 265-133-32 134 146 206 220 116 32 6 57 18 82 31-10-31-30-53-53-70 26 3 49 10 68 19-12-25-39-48-61-67z m109 351h-766c-53 0-96-43-96-96v-766c0-53 43-96 96-96h766c53 0 96 43 96 96v766c0 53-43 96-96 96z" horiz-adv-x="1000" />
<glyph glyph-name="twitter_2-1" unicode="&#xe851;" d="m692 398h-144v-187c0-35 7-53 53-53h91v-143c0 0-50-5-101-5-127 0-187 78-187 163v225h-96v134c116 10 126 98 134 153h106v-143h144m191 287h-766c-53 0-96-43-96-96v-766c0-53 43-96 96-96h766c53 0 96 43 96 96v766c0 53-43 96-96 96z" horiz-adv-x="1000" />
<glyph glyph-name="typography" unicode="&#xe852;" d="m859 574c-15 68-28 103-45 126-23 34-47 44-154 44h-100v-699c0-112 11-126 146-134v-40h-408v40c130 8 141 22 141 134v699h-88c-118 0-146-11-165-44-17-24-28-64-45-126h-41c7 85 14 177 17 255h28c20-32 38-35 78-35h561c38 0 50 8 72 35h30c0-65 7-169 14-251l-41-4z" horiz-adv-x="1000" />
</font>
</defs>
</svg>
